# xmcd CD database file
#
# Track frame offsets:
#	150
#	14545
#	37282
#	52817
#	72355
#	88392
#	99785
#	118212
#	135467
#	148240
#
# Disc length: 2358 seconds
#
# Revision: 0
# Processed by: cddbd v1.5.1PL0 Copyright (c) Steve Scherf et al.
# Submitted via: CDex 1.51
#
DISCID=9209340a
DTITLE=Blues Cruizers, with Monica Marie - Labor of Love
DYEAR=1999
DGENRE=Blues
TTITLE0=Sweet Home Chicago
TTITLE1=I Wonder
TTITLE2=Club Soul City
TTITLE3=Lyin' Dog Blues
TTITLE4=It's Raining
TTITLE5=You Can Have My Husband
TTITLE6=Labor of Love
TTITLE7=Sinner's Prayer
TTITLE8=Paing The Cost To Be The Boss
TTITLE9=St. James Infimary
EXTD=YEAR: 1999
EXTT0=
EXTT1=
EXTT2=
EXTT3=
EXTT4=
EXTT5=
EXTT6=
EXTT7=
EXTT8=
EXTT9=
PLAYORDER=
